<?xml version="1.0" standalone="no"?>
<!DOCTYPE svg PUBLIC "-//W3C//DTD SVG 20010904//EN"
 "http://www.w3.org/TR/2001/REC-SVG-20010904/DTD/svg10.dtd">
<svg version="1.0" xmlns="http://www.w3.org/2000/svg"
 width="1280.000000pt" height="736.000000pt" viewBox="0 0 1280.000000 736.000000"
 preserveAspectRatio="xMidYMid meet">
<g transform="translate(0.000000,736.000000) scale(0.100000,-0.100000)"
fill="#ffc107" stroke="none">
<path d="M8025 7302 c-198 -105 -317 -219 -386 -367 -17 -36 -35 -65 -39 -65
-5 0 -17 11 -27 24 -52 65 -210 184 -320 240 l-52 26 -26 -25 c-14 -14 -25
-30 -25 -35 0 -5 23 -57 50 -116 57 -121 62 -150 28 -140 -13 3 -65 11 -116
16 -175 19 -314 -19 -449 -122 -29 -22 -51 -44 -48 -48 2 -4 54 -29 115 -55
60 -26 110 -52 110 -57 0 -5 -19 -17 -42 -26 -78 -30 -292 -138 -386 -196
-107 -65 -272 -174 -272 -181 0 -2 127 -2 283 1 174 4 287 2 296 -4 11 -8 3
-37 -47 -158 -33 -82 -59 -150 -57 -152 2 -2 46 13 99 32 94 36 239 66 252 53
4 -4 -3 -39 -15 -79 -14 -48 -21 -100 -21 -151 l0 -77 -53 -34 c-119 -76 -190
-190 -190 -305 -1 -71 14 -111 55 -147 31 -29 95 -61 152 -75 57 -14 58 -25
10 -105 -49 -81 -121 -152 -319 -314 -93 -76 -199 -167 -234 -202 -194 -190
-291 -369 -291 -535 l0 -74 -67 -31 c-95 -43 -282 -102 -386 -123 -107 -20
-248 -16 -357 11 -101 25 -466 28 -495 4 -13 -11 -42 -15 -104 -15 -66 0 -97
-5 -132 -21 -40 -19 -52 -20 -96 -11 -66 14 -146 -3 -205 -43 -27 -19 -56 -30
-78 -30 -47 0 -153 -26 -193 -46 -18 -9 -49 -32 -69 -50 -33 -30 -43 -33 -80
-29 -93 11 -1690 136 -1694 132 -2 -2 -7 -17 -10 -34 -6 -30 -5 -31 42 -37 27
-3 168 -15 314 -26 146 -12 373 -29 505 -40 132 -10 368 -29 525 -41 157 -12
295 -26 307 -30 19 -7 22 -15 21 -54 0 -26 5 -52 11 -58 6 -6 11 -16 11 -23 0
-33 -474 -195 -1036 -353 -214 -60 -576 -164 -804 -231 -835 -245 -1436 -413
-1819 -508 -120 -29 -138 -41 -128 -84 6 -22 18 -27 139 -56 198 -47 416 -91
998 -201 787 -150 1133 -225 1454 -317 368 -105 818 -281 2291 -894 817 -340
1128 -466 1335 -541 74 -28 145 -55 157 -61 21 -10 32 -3 129 95 282 284 945
828 1627 1336 610 453 1004 713 1179 776 34 12 63 26 65 31 2 5 -25 20 -60 33
-169 64 -322 115 -421 141 -59 16 -111 31 -114 34 -10 10 24 14 238 25 503 27
605 79 757 389 35 72 67 132 69 132 2 0 244 -23 537 -50 1006 -95 1921 -172
2213 -186 136 -7 142 -6 153 13 22 43 -6 49 -274 67 -286 19 -855 65 -871 71
-8 2 -13 81 -17 247 -4 176 -11 279 -26 373 -78 480 -275 987 -585 1503 -436
724 -856 1122 -1361 1287 -113 37 -293 75 -358 75 -65 1 -117 16 -146 43 -92
86 -218 82 -355 -11 -38 -26 -76 -52 -85 -59 -9 -6 -34 -14 -56 -17 -34 -5
-51 0 -109 32 -38 20 -70 41 -70 47 -2 18 77 36 182 42 56 3 102 9 102 13 0 9
-140 97 -194 120 -86 39 -70 55 39 39 41 -6 79 -8 83 -5 13 13 -42 97 -93 144
-28 26 -83 63 -121 83 -38 20 -69 41 -69 47 0 7 54 45 120 85 111 67 120 75
118 101 -1 16 -7 34 -12 39 -23 23 -373 -34 -529 -85 -51 -17 -96 -28 -99 -24
-10 10 31 82 98 172 58 77 58 78 41 106 -9 15 -23 28 -32 28 -8 0 -46 -17 -85
-38z m-45 -127 c0 -3 -18 -40 -40 -83 -42 -82 -63 -152 -74 -242 l-7 -55 63
67 c46 48 82 76 129 98 110 51 379 110 379 82 0 -5 -47 -38 -105 -72 -58 -34
-107 -66 -110 -70 -3 -4 38 -23 90 -40 109 -38 209 -90 213 -112 2 -12 -15
-16 -85 -21 -48 -4 -122 -15 -163 -25 -67 -15 -75 -20 -78 -42 -4 -45 10 -52
132 -66 116 -14 198 -37 180 -53 -5 -4 -35 -18 -66 -30 -71 -29 -84 -43 -92
-109 -10 -74 -44 -161 -77 -194 -29 -30 -67 -36 -114 -18 -42 16 -118 94 -150
154 -16 31 -34 54 -40 53 -5 -2 -69 -95 -142 -208 -72 -112 -136 -205 -141
-207 -6 -2 -54 42 -108 98 -53 55 -100 100 -104 100 -3 0 -78 -58 -165 -130
-87 -71 -161 -130 -165 -130 -12 0 -20 28 -20 64 0 19 10 46 25 66 14 18 23
35 21 38 -3 2 -42 -10 -87 -28 -53 -20 -114 -35 -170 -41 -47 -5 -99 -13 -114
-19 -50 -19 -50 2 -1 111 25 56 46 106 46 109 0 14 -150 33 -280 35 -74 1
-136 7 -137 12 -4 11 178 116 282 164 99 45 218 84 300 99 39 7 76 16 82 19 7
4 -59 38 -150 77 -98 43 -163 76 -165 86 -3 16 56 46 133 67 98 27 296 7 428
-43 37 -14 67 -21 67 -16 0 5 -29 73 -65 150 -36 77 -65 145 -65 150 0 17 16
11 76 -29 90 -60 173 -139 214 -203 21 -31 40 -55 43 -52 2 3 17 6 33 8 25 3
29 8 41 66 17 87 56 160 127 237 69 75 176 153 176 128z m537 -857 c84 -43 98
-63 68 -88 -8 -7 -33 -39 -55 -72 -46 -69 -43 -98 12 -98 23 0 39 -9 63 -37
28 -32 32 -43 27 -76 l-5 -39 39 6 c36 6 42 4 61 -22 14 -18 20 -38 16 -51 -3
-12 1 -28 8 -37 12 -14 35 -16 164 -13 l150 4 -1 -85 c-1 -61 -8 -101 -24
-143 -52 -138 -182 -285 -359 -406 -109 -74 -344 -198 -349 -183 -2 6 30 45
72 87 190 192 306 417 310 598 1 67 -1 72 -21 75 -19 3 -22 -3 -28 -55 -3 -32
-7 -64 -8 -72 -5 -35 -28 -16 -66 54 -52 98 -103 160 -156 191 -48 28 -111 32
-154 10 -68 -36 -156 -175 -187 -299 -37 -143 4 -286 113 -394 32 -32 72 -68
88 -79 l30 -22 -25 -27 c-30 -34 -188 -152 -250 -188 -50 -29 -239 -88 -341
-107 -37 -6 -107 -13 -155 -13 l-88 -2 -7 46 c-9 58 -25 83 -66 106 -25 13
-37 15 -51 7 -29 -19 -27 -51 6 -68 52 -27 50 -51 -13 -176 -83 -164 -256
-411 -390 -557 -185 -202 -420 -337 -607 -350 -65 -5 -83 -3 -122 17 -128 62
-113 252 37 475 57 84 199 223 352 345 261 208 345 298 402 427 23 53 32 63
58 69 16 3 52 15 78 26 46 20 50 20 99 4 137 -44 331 6 505 130 116 83 191
203 201 320 12 153 -77 234 -257 234 -138 0 -242 -40 -346 -133 l-57 -50 -56
28 c-43 21 -77 29 -142 34 l-85 6 1 70 c1 40 9 87 18 110 16 38 18 39 32 21 8
-11 14 -31 14 -45 1 -61 14 -58 115 25 238 194 276 223 288 218 6 -3 57 -54
112 -114 78 -86 102 -107 111 -97 7 6 65 93 128 192 64 99 123 184 131 190 10
7 24 -3 55 -37 52 -59 128 -98 192 -98 58 0 95 17 135 64 29 32 73 130 73 160
0 13 9 26 19 26 3 0 43 -19 88 -42z m938 -15 c281 -55 564 -204 824 -434 392
-345 889 -1144 1104 -1774 95 -278 143 -498 168 -768 12 -137 8 -382 -7 -397
-9 -9 -288 14 -1138 95 -264 25 -484 49 -488 53 -5 5 8 62 31 128 84 254 192
658 235 879 60 314 79 538 79 920 0 315 -11 483 -34 511 -17 20 -57 17 -69 -5
-7 -14 -6 -51 2 -123 15 -134 15 -625 -1 -798 -33 -369 -99 -691 -242 -1170
-162 -543 -279 -747 -457 -800 -118 -34 -409 -60 -689 -60 -164 0 -148 -12
-156 121 -6 84 -45 213 -102 333 -41 87 -43 106 -12 106 12 0 105 7 207 15
102 8 222 15 267 15 157 0 233 34 299 132 87 128 226 612 259 894 43 375 67
910 48 1049 -7 53 -11 60 -32 63 -13 2 -28 -2 -33 -10 -5 -7 -6 -70 -3 -143
11 -240 -32 -874 -76 -1104 -37 -198 -144 -551 -199 -662 -31 -60 -96 -126
-132 -133 -13 -3 -104 -10 -203 -16 -99 -6 -249 -16 -333 -22 l-153 -12 -56
58 c-32 32 -80 76 -108 97 -64 48 -202 113 -275 129 -85 18 -90 20 -90 36 0 9
106 222 235 474 129 252 235 462 235 467 0 11 -250 164 -259 158 -4 -2 -108
-244 -231 -537 -123 -293 -227 -538 -232 -544 -5 -7 -38 -15 -74 -19 -127 -13
-262 -62 -342 -123 -43 -33 -92 -101 -92 -128 0 -12 -6 -24 -13 -27 -7 -3
-338 21 -736 53 -634 51 -724 60 -742 76 -28 25 -50 9 -67 -47 -98 -323 -121
-376 -197 -448 -96 -91 -184 -91 -233 -1 -20 39 -23 55 -20 120 7 116 52 195
196 338 116 116 132 144 81 150 -43 5 -198 -143 -277 -266 -54 -84 -76 -152
-76 -237 0 -116 47 -199 130 -231 84 -32 175 -4 259 81 60 60 102 137 145 268
18 53 36 99 40 102 4 2 184 -38 401 -89 217 -52 558 -133 759 -181 428 -101
400 -93 400 -108 0 -7 -13 -44 -30 -82 -21 -51 -30 -86 -30 -129 0 -59 1 -60
51 -109 33 -32 47 -52 40 -56 -6 -4 -85 -13 -174 -20 -89 -6 -351 -32 -582
-56 -231 -24 -454 -47 -495 -51 -86 -8 -110 -17 -110 -44 0 -26 26 -38 69 -34
1028 113 1468 146 2321 175 299 10 348 9 449 -5 222 -33 550 -133 520 -159 -2
-2 -62 -39 -134 -82 -588 -352 -1994 -1433 -2532 -1949 l-121 -116 -103 36
c-160 56 -532 206 -1370 554 -1807 751 -2068 848 -2639 983 -314 74 -522 117
-1175 241 -790 151 -885 171 -885 190 0 7 24 18 52 25 337 85 985 267 1723
484 215 63 545 158 735 211 539 151 800 235 1039 335 41 17 80 31 87 31 7 0
20 -15 29 -34 24 -50 70 -68 158 -64 l72 3 17 -36 c31 -66 93 -69 206 -11 l58
31 47 -50 c58 -62 87 -74 146 -59 104 26 199 100 316 246 92 114 92 114 125
114 29 0 124 42 135 59 8 13 -20 61 -36 61 -5 0 -23 -10 -39 -22 -19 -13 -49
-23 -85 -26 -54 -4 -55 -5 -99 -66 -109 -152 -257 -283 -333 -293 -35 -5 -42
-2 -71 31 -53 61 -55 143 -6 243 30 62 155 221 233 297 l50 49 109 5 c191 8
408 -30 532 -93 27 -14 51 -25 54 -25 2 0 14 15 26 34 18 30 29 36 78 46 102
20 235 59 355 106 l118 46 43 -40 c56 -52 106 -65 221 -60 102 5 193 34 311
97 112 61 178 113 309 245 157 157 284 328 408 547 l52 94 125 7 c257 14 530
99 891 278 476 235 699 488 699 794 l0 93 52 34 c126 82 154 216 83 393 -13
33 -21 64 -18 69 6 10 83 3 198 -20z m-1040 -493 c48 -30 101 -103 157 -218
l50 -103 -16 -44 c-20 -51 -57 -108 -71 -109 -5 -1 -53 60 -106 134 -53 74
-104 136 -113 138 -42 9 -24 -33 75 -170 56 -78 104 -150 107 -160 4 -17 -113
-168 -131 -168 -18 0 -129 93 -162 137 -57 75 -78 144 -72 240 4 72 10 94 50
176 75 153 147 199 232 147z m-642 -101 c21 -5 52 -23 70 -39 30 -26 32 -33
32 -92 -1 -83 -45 -167 -127 -243 -63 -59 -181 -130 -198 -120 -5 3 -10 22
-10 41 0 46 -37 81 -96 90 -76 11 -161 -45 -180 -120 -3 -15 -11 -25 -18 -23
-7 2 -11 34 -10 88 0 72 4 92 29 143 35 70 136 182 203 225 84 53 215 75 305
50z m-586 -124 c23 -9 44 -22 46 -29 3 -7 -11 -44 -30 -83 -36 -73 -59 -189
-48 -249 4 -22 0 -35 -13 -47 -20 -18 -87 -36 -80 -21 30 63 37 88 32 109 -13
51 -87 85 -154 70 -41 -9 -99 -60 -117 -103 -27 -65 -73 -19 -73 73 1 120 100
232 255 288 57 20 119 17 182 -8z m1036 -1134 c20 -12 37 -27 37 -33 0 -6
-135 -275 -301 -599 -193 -378 -299 -596 -297 -611 2 -17 10 -23 28 -23 21 0
33 16 88 118 l64 118 46 -6 c70 -10 205 -58 269 -96 63 -38 172 -142 219 -209
65 -92 132 -250 159 -374 19 -85 17 -214 -4 -239 -9 -11 -60 -16 -229 -21
-119 -3 -258 -9 -309 -12 -92 -6 -92 -6 -104 19 -17 37 -28 38 -110 16 -95
-26 -313 -37 -401 -19 -138 27 -198 73 -182 143 3 17 27 76 52 131 68 151 68
217 -1 252 -18 9 -35 22 -39 28 -14 21 -9 195 7 225 44 86 204 157 397 176 37
3 71 12 76 18 5 7 103 235 217 507 114 272 213 505 222 518 13 21 17 22 36 10
12 -8 39 -24 60 -37z m-3577 -836 c4 -8 -17 -41 -52 -82 -110 -130 -165 -232
-179 -330 -6 -48 -10 -54 -54 -82 -26 -17 -62 -36 -80 -42 -80 -28 -78 61 4
227 80 163 181 270 293 310 48 17 61 17 68 -1z m-272 -36 c-4 -7 -28 -40 -55
-75 -63 -83 -117 -181 -143 -260 -12 -35 -26 -68 -32 -74 -18 -18 -127 -23
-148 -7 -18 13 -19 19 -8 53 6 22 29 66 51 99 53 80 194 231 240 255 40 21
107 27 95 9z m-296 -87 c-1 -4 -28 -40 -58 -80 -40 -52 -64 -74 -89 -81 -44
-13 -54 -6 -47 31 9 45 43 86 94 113 45 23 107 34 100 17z m1887 -252 c61 -5
344 -28 630 -51 341 -27 522 -45 527 -52 4 -7 8 -48 8 -93 0 -90 8 -104 57
-104 26 0 33 -4 33 -19 0 -11 -4 -22 -9 -25 -12 -8 -1431 330 -1445 344 -13
13 52 13 199 0z"/>
</g>
</svg>
